<svg width="151" height="30" viewBox="0 0 151 30" fill="none" xmlns="http://www.w3.org/2000/svg">
<path fill-rule="evenodd" clip-rule="evenodd" d="M65.1392 0.665283C63.6378 0.665283 62.4207 1.88241 62.4207 3.3838C62.436 4.87884 63.6442 6.08708 65.1392 6.10232C66.6406 6.10232 67.8578 4.8852 67.8578 3.3838C67.8578 1.88241 66.6406 0.665283 65.1392 0.665283ZM67.4059 7.43121H62.874V22.5334H67.4059V7.43121Z" fill="#001A49"/>
<path fill-rule="evenodd" clip-rule="evenodd" d="M85.0258 20.4707C86.3806 18.9738 87.0826 16.9985 86.9763 14.9823C87.0826 12.9663 86.3806 10.9911 85.0257 9.49442C83.6709 7.99776 81.7751 7.10319 79.7585 7.00896C78.0579 6.916 76.4055 7.59208 75.2578 8.85044V7.43118H70.7274V28.5749H75.2578V21.1141C76.4052 22.3731 78.0576 23.0497 79.7585 22.9571C81.7752 22.8625 83.671 21.9676 85.0258 20.4707ZM78.7911 11.4776C80.7649 11.4445 82.3963 13.0089 82.4459 14.9823C82.5149 15.9632 82.1618 16.927 81.4752 17.631C80.7887 18.3351 79.8342 18.7125 78.8518 18.6682C76.8778 18.6684 75.2727 17.077 75.2561 15.103C75.2394 13.129 76.8173 11.5108 78.7911 11.4776Z" fill="#001A49"/>
<path d="M100.96 18.0001C100.96 21.4741 97.9392 22.9541 94.677 22.9541C91.9805 23.1981 89.4078 21.7735 88.1837 19.3586L92.1096 17.1245C92.4385 18.2488 93.5088 18.99 94.677 18.9023C95.7644 18.9023 96.3066 18.569 96.3066 17.966C96.3066 16.3038 88.877 17.1808 88.877 11.9541C88.877 8.6623 91.6548 7.00156 94.8029 7.00156C97.2078 6.92607 99.4635 8.16377 100.692 10.2327L96.8266 12.3171C96.481 11.5066 95.684 10.9816 94.8029 10.9838C94.0177 10.9838 93.5348 11.2801 93.5348 11.8297C93.5303 13.563 100.96 12.4149 100.96 18.0001Z" fill="#001A49"/>
<path d="M117.518 7.43115V22.5334H112.988V21.1112C111.926 22.382 110.32 23.0673 108.668 22.9541C105.618 22.9541 103.021 20.7793 103.021 16.7008V7.43115H107.551V16.04C107.474 16.7686 107.721 17.4942 108.228 18.0237C108.734 18.5531 109.448 18.8328 110.179 18.7882C111.84 18.7882 112.994 17.8223 112.994 15.6771V7.43115H117.518Z" fill="#001A49"/>
<path d="M143.486 13.2592V22.5333H138.956V13.6533C138.956 12.1436 138.23 11.1762 136.781 11.1762C135.27 11.1762 134.425 12.234 134.425 14.0162V22.5333H129.893V13.6533C129.893 12.1436 129.169 11.1762 127.719 11.1762C126.209 11.1762 125.363 12.234 125.363 14.0162V22.5333H120.833V7.43104H125.37V8.81475C126.324 7.56281 127.849 6.88052 129.418 7.00289C130.995 6.92576 132.497 7.68221 133.375 8.99549C134.395 7.62239 136.05 6.86987 137.756 7.00289C141.222 7.00882 143.486 9.48437 143.486 13.2592Z" fill="#001A49"/>
<path d="M147.324 7.33774C149.182 7.33774 150.687 5.83209 150.687 3.97478C150.687 2.11747 149.182 0.611816 147.324 0.611816C145.467 0.611816 143.961 2.11747 143.961 3.97478C143.961 5.83209 145.467 7.33774 147.324 7.33774Z" fill="#001A49"/>
<path fill-rule="evenodd" clip-rule="evenodd" d="M0.565887 0.484375H5.09774V22.5333H0.565887V0.484375ZM7.66367 14.9822C7.65347 11.7442 9.59613 8.81937 12.5847 7.57318C15.5733 6.327 19.0183 7.00521 21.3116 9.2912C23.6048 11.5772 24.2938 15.0201 23.0571 18.0126C21.8203 21.0051 18.9017 22.957 15.6637 22.957C13.5394 22.9797 11.4952 22.1476 9.99068 20.6478C8.48617 19.148 7.64764 17.1065 7.66367 14.9822ZM15.6094 11.599C17.5159 11.5661 19.0926 13.076 19.1422 14.9822H19.1481C19.1977 15.9271 18.85 16.8497 18.1889 17.5267C17.5279 18.2038 16.6139 18.5736 15.6681 18.5466C13.7613 18.546 12.2114 17.0086 12.1953 15.1019C12.1792 13.1952 13.7029 11.6318 15.6094 11.599ZM41.7333 7.4266V21.7747C41.7333 26.8488 37.7763 28.9925 33.76 28.9925C30.8778 29.2101 28.1155 27.7998 26.6014 25.3377L30.4666 23.1022C31.1055 24.3929 32.4783 25.1516 33.9111 25.0059C34.8156 25.1294 35.7273 24.8358 36.3898 24.2076C37.0522 23.5794 37.3938 22.6846 37.3185 21.7747V20.3851C36.2423 21.7011 34.6062 22.4293 32.9081 22.3481C28.7638 22.2193 25.471 18.8225 25.471 14.6762C25.471 10.53 28.7638 7.13317 32.9081 7.00437C34.6062 6.92311 36.2423 7.65132 37.3185 8.96734V7.4266H41.7333ZM35.1719 11.1898C36.5335 11.8036 37.3855 13.1832 37.3244 14.6755V14.6799C37.351 15.6445 36.9689 16.5754 36.2722 17.243C35.5755 17.9106 34.6292 18.2528 33.6666 18.1851C32.1731 18.1845 30.8299 17.2762 30.2729 15.8905C29.716 14.5047 30.0571 12.9195 31.1347 11.8855C32.2124 10.8514 33.8104 10.5761 35.1719 11.1898ZM44.2992 14.9718C44.289 11.7338 46.2317 8.809 49.2203 7.56281C52.2088 6.31663 55.6539 6.99484 57.9471 9.28083C60.2403 11.5668 60.9294 15.0097 59.6926 18.0022C58.4559 20.9947 55.5372 22.9466 52.2992 22.9466C50.1768 22.9693 48.1342 22.1386 46.63 20.6411C45.1258 19.1436 44.286 17.1047 44.2992 14.9822V14.9718ZM52.2439 11.5856C54.1516 11.553 55.7289 13.0644 55.7777 14.9718V14.9822C55.8243 15.9243 55.476 16.8431 54.8166 17.5176C54.1573 18.1922 53.2466 18.5613 52.3037 18.5362C50.3957 18.5364 48.8443 16.9984 48.8279 15.0905C48.8115 13.1826 50.3362 11.6182 52.2439 11.5856Z" fill="#001A49"/>
</svg>
